<svg xmlns="http://www.w3.org/2000/svg" xmlns:sketch="http://www.bohemiancoding.com/sketch/ns" xmlns:xlink="http://www.w3.org/1999/xlink" height="24" version="1.1" width="24" style=""><rect id="backgroundrect" width="100%" height="100%" x="0" y="0" fill="none" stroke="none"/><title/><desc/><defs/><g class="currentLayer" style=""><title>Layer 1</title><g fill="#ffffff" fill-rule="evenodd" id="miu" stroke="none" stroke-width="1" class="selected" fill-opacity="1"><g id="Artboard-1" fill="#ffffff" fill-opacity="1"><g id="slice" fill="#ffffff" fill-opacity="1"/><path d="M9.50573700000001,4.924738999999988 L9.50573700000001,1.9990510000000086 C9.50573700000001,1.4433530000000019 9.953366000000017,1 10.505544999999984,1 L13.505929999999978,1 C14.062021000000016,1 14.50573700000001,1.4472900000000095 14.50573700000001,1.9990510000000086 L14.50573700000001,4.92879499999998 C14.757368999999983,5.017965000000004 15.002826000000027,5.120186999999987 15.241295999999977,5.234645 L17.313765999999987,3.162173999999993 C17.706704000000002,2.7692369999999755 18.336723000000006,2.772260000000017 18.727172999999993,3.162710000000004 L20.848765000000014,5.284302000000025 C21.24198100000001,5.6775180000000205 21.239454000000023,6.307554999999979 20.849300000000028,6.697707999999977 L18.772783000000004,8.774225999999999 C18.885970999999984,9.011449000000027 18.987062999999978,9.255552000000023 19.075261000000012,9.50573700000001 L22.01242400000001,9.50573700000001 C22.56812100000002,9.50573700000001 23.01147500000002,9.953366000000017 23.01147500000002,10.505544999999984 L23.01147500000002,13.505929999999978 C23.01147500000002,14.062021000000016 22.56418400000001,14.50573700000001 22.01242400000001,14.50573700000001 L19.07120500000002,14.50573700000001 C18.983001,14.754640999999992 18.88202799999999,14.997503999999992 18.76907299999999,15.233539000000007 L20.849300000000028,17.313765999999987 C21.242237999999986,17.706704000000002 21.239214000000004,18.336723000000006 20.848765000000014,18.727171999999996 L18.727172999999993,20.848765000000014 C18.333956999999998,21.24198100000001 17.703919999999982,21.239454000000023 17.313765999999987,20.849300000000028 L15.233539000000007,18.76907299999999 C14.997503999999992,18.88202799999999 14.754640999999992,18.983001 14.50573700000001,19.07120500000002 L14.50573700000001,22.01242400000001 C14.50573700000001,22.56812100000002 14.058108000000004,23.01147500000002 13.505929999999978,23.01147500000002 L10.505544999999984,23.01147500000002 C9.949454000000003,23.01147500000002 9.50573700000001,22.56418400000001 9.50573700000001,22.01242400000001 L9.50573700000001,19.075261000000012 C9.255552000000023,18.987062999999978 9.011449000000027,18.885970999999984 8.774225999999999,18.772783000000004 L6.697707999999977,20.849300000000028 C6.304771000000017,21.242237999999986 5.674751000000015,21.239214000000004 5.284302000000025,20.848765000000014 L3.162710000000004,18.727171999999996 C2.769494000000009,18.333956999999998 2.772020999999995,17.703919999999982 3.162173999999993,17.313765999999987 L5.234645,15.241295999999977 C5.120186999999987,15.002826000000027 5.017965000000004,14.757368999999983 4.92879499999998,14.50573700000001 L1.9990510000000086,14.50573700000001 C1.4433530000000019,14.50573700000001 1,14.058108000000004 1,13.505929999999978 L1,10.505544999999984 C1,9.949454000000003 1.4472900000000095,9.50573700000001 1.9990510000000086,9.50573700000001 L4.924738999999988,9.50573700000001 C5.013898999999981,9.25282199999998 5.116237000000012,9.006121000000007 5.230927000000008,8.766460999999993 L3.162173999999993,6.697707999999977 C2.7692369999999755,6.304771000000017 2.772260000000017,5.674751000000015 3.162710000000004,5.284302000000025 L5.284302000000025,3.162710000000004 C5.6775180000000205,2.769494000000009 6.307554999999979,2.772020999999995 6.697707999999977,3.162173999999993 L8.766460999999993,5.230927000000008 C9.006121000000007,5.116237000000012 9.25282199999998,5.013898999999981 9.50573700000001,4.924738999999988 L9.50573700000001,4.924738999999988 zM17,12 C17,9.238576000000023 14.761423999999977,7 12,7 C9.238576000000023,7 7,9.238576000000023 7,12 C7,14.761423999999977 9.238576000000023,17 12,17 C14.761423999999977,17 17,14.761423999999977 17,12 z" fill="#ffffff" id="editor-setting-gear-glyph" fill-opacity="1"/></g></g></g></svg>