<?xml version="1.0" encoding="UTF-8" standalone="no"?><!DOCTYPE svg PUBLIC "-//W3C//DTD SVG 1.1//EN" "http://www.w3.org/Graphics/SVG/1.1/DTD/svg11.dtd"><svg width="100%" height="100%" viewBox="0 0 139 37" version="1.1" xmlns="http://www.w3.org/2000/svg" xmlns:xlink="http://www.w3.org/1999/xlink" xml:space="preserve" xmlns:serif="http://www.serif.com/" style="fill-rule:evenodd;clip-rule:evenodd;stroke-linejoin:round;stroke-miterlimit:1.41421;"><path id="Kształt-1" serif:id="Kształt 1" d="M45.799,5.021c-3.225,-3.238 -7.509,-5.021 -12.065,-5.021c-3.858,0 -7.522,1.279 -10.513,3.638c-2.99,-2.359 -6.654,-3.638 -10.512,-3.638c-4.556,0 -8.841,1.783 -12.066,5.021l-0.643,0.646l0,29.527l3.748,1.559c2.396,-2.405 5.578,-3.73 8.961,-3.73c3.382,0 6.564,1.325 8.96,3.73l3.105,0c2.396,-2.405 5.578,-3.73 8.96,-3.73c3.383,0 6.565,1.325 8.96,3.73l3.748,-1.559l0,-29.527l-0.643,-0.646Zm44.56,6.46l0,11.152c0,1.775 0.689,3.444 1.939,4.7c1.25,1.255 2.913,1.946 4.681,1.946c3.65,0 6.62,-2.981 6.62,-6.646l0,-11.152l4.391,0l0,11.152c0,6.096 -4.94,11.055 -11.011,11.055c-2.941,0 -5.706,-1.15 -7.786,-3.238c-2.079,-2.088 -3.225,-4.864 -3.225,-7.817l0,-11.152l4.391,0Zm47.637,0.1l0,22.107l-4.391,0l0,-22.107l4.391,0Zm-21.712,-8.319l0,19.744l10.238,-8.842l2.865,3.343l-6.887,5.946l8.341,10.235l-5.675,0l-5.997,-7.359l-2.885,2.492l0,4.867l-4.391,0l0,-30.426l4.391,0Zm-51.555,-0.197l0,10.596c1.867,-1.427 4.195,-2.277 6.717,-2.277c6.125,0 11.108,5.003 11.108,11.152c0,6.149 -4.983,11.152 -11.108,11.152c-6.125,0 -11.108,-5.003 -11.108,-11.152c0,-0.294 0.015,-0.584 0.038,-0.876l-0.038,0l0,-18.595l4.391,0Zm-31.572,1.357c-2.875,0.129 -5.576,1.221 -7.74,3.118l0,17.404l-4.391,0l0,-17.404c-2.309,-2.023 -5.228,-3.131 -8.317,-3.131c-3.088,0 -6.01,1.104 -8.318,3.126l0,23.246c2.515,-1.414 5.359,-2.166 8.318,-2.166c3.858,0 7.522,1.279 10.512,3.637c2.991,-2.358 6.655,-3.637 10.513,-3.637c2.959,0 5.803,0.752 8.317,2.166l0,-23.246c-2.308,-2.022 -5.229,-3.126 -8.317,-3.126l-0.577,0.013Zm38.289,24.857c-3.704,0 -6.717,-3.025 -6.717,-6.743c0,-3.718 3.013,-6.743 6.717,-6.743c3.703,0 6.716,3.025 6.716,6.743c0,3.718 -3.013,6.743 -6.716,6.743Zm64.354,-21.79c1.217,0 2.204,-0.99 2.204,-2.212c0,-1.221 -0.987,-2.212 -2.204,-2.212c-1.216,0 -2.203,0.991 -2.203,2.212c0,1.222 0.987,2.212 2.203,2.212Z" style="fill:#fff;"/></svg>